<mxfile host="app.diagrams.net" modified="2024-05-08T08:42:06.007Z" agent="Mozilla/5.0 (Windows NT 10.0; Win64; x64) AppleWebKit/537.36 (KHTML, like Gecko) Chrome/123.0.0.0 Safari/537.36" version="24.3.1" etag="nhXR7DEu5ljbKxuysZTg" type="github">
  <diagram name="第 1 页" id="Tiu2Nba0YtVm2GiIOeIy">
    <mxGraphModel>
      <root>
        <mxCell id="0" />
        <mxCell id="1" parent="0" />
      </root>
    </mxGraphModel>
  </diagram>
</mxfile>
